HIERARCHY
ROOT Hips
{
	OFFSET 0.000000 0.000000 0.000000
	CHANNELS 6 Xposition Yposition Zposition Xrotation Yrotation Zrotation
	JOINT Chest
	{
		OFFSET 0.000000 1.151646 10.364816
		CHANNELS 3 Xrotation Yrotation Zrotation
		JOINT Chest2
		{
			OFFSET 0.000000 -0.000000 11.517722
			CHANNELS 3 Xrotation Yrotation Zrotation
			JOINT Chest3
			{
				OFFSET 0.000000 0.000996 10.515804
				CHANNELS 3 Xrotation Yrotation Zrotation
				JOINT Chest4
				{
					OFFSET 0.000000 0.000998 10.504063
					CHANNELS 3 Xrotation Yrotation Zrotation
					JOINT Neck
					{
						OFFSET 0.000000 -0.000001 14.700996
						CHANNELS 3 Xrotation Yrotation Zrotation
						JOINT Head
						{
							OFFSET 0.000000 -0.002144 9.779655
							CHANNELS 3 Xrotation Yrotation Zrotation
							End Site
							{
								OFFSET 0.000000 0.000000 0.099998
							}
						}
					}
					JOINT RightCollar
					{
						OFFSET -3.200323 -0.000000 8.241253
						CHANNELS 3 Xrotation Yrotation Zrotation
						JOINT RightShoulder
						{
							OFFSET -14.963747 0.000000 0.000000
							CHANNELS 3 Xrotation Yrotation Zrotation
							JOINT RightElbow
							{
								OFFSET -31.975845 0.000000 0.000000
								CHANNELS 3 Xrotation Yrotation Zrotation
								JOINT RightWrist
								{
									OFFSET -26.149033 0.000000 0.000000
									CHANNELS 3 Xrotation Yrotation Zrotation
									End Site
									{
										OFFSET 0.000000 0.000000 0.099998
									}
								}
							}
						}
					}
					JOINT LeftCollar
					{
						OFFSET 3.200323 -0.000000 8.241253
						CHANNELS 3 Xrotation Yrotation Zrotation
						JOINT LeftShoulder
						{
							OFFSET 14.963747 0.000000 0.000000
							CHANNELS 3 Xrotation Yrotation Zrotation
							JOINT LeftElbow
							{
								OFFSET 31.975845 0.000000 0.000000
								CHANNELS 3 Xrotation Yrotation Zrotation
								JOINT LeftWrist
								{
									OFFSET 26.149033 0.000000 0.000000
									CHANNELS 3 Xrotation Yrotation Zrotation
									End Site
									{
										OFFSET 0.000000 0.000000 0.099998
									}
								}
							}
						}
					}
				}
			}
		}
	}
	JOINT RightHip
	{
		OFFSET -8.525852 0.000400 0.003604
		CHANNELS 3 Xrotation Yrotation Zrotation
		JOINT RightKnee
		{
			OFFSET 0.000000 0.000238 -44.087433
			CHANNELS 3 Xrotation Yrotation Zrotation
			JOINT RightAnkle
			{
				OFFSET 0.000000 0.000399 -43.085331
				CHANNELS 3 Xrotation Yrotation Zrotation
				JOINT RightToe
				{
					OFFSET 0.000000 -18.057957 -7.938347
					CHANNELS 3 Xrotation Yrotation Zrotation
					End Site
					{
						OFFSET 0.000000 0.000000 0.099998
					}
				}
			}
		}
	}
	JOINT LeftHip
	{
		OFFSET 8.525852 0.000142 0.001277
		CHANNELS 3 Xrotation Yrotation Zrotation
		JOINT LeftKnee
		{
			OFFSET 0.000000 0.000238 -44.087433
			CHANNELS 3 Xrotation Yrotation Zrotation
			JOINT LeftAnkle
			{
				OFFSET 0.000000 0.000399 -43.085323
				CHANNELS 3 Xrotation Yrotation Zrotation
				JOINT LeftToe
				{
					OFFSET 0.000000 -18.057957 -7.938347
					CHANNELS 3 Xrotation Yrotation Zrotation
					End Site
					{
						OFFSET 0.000000 0.000000 0.099998
					}
				}
			}
		}
	}
}
MOTION
Frames: 15
Frame Time: 0.004184
196.355469 -690.789978 95.182983 0.021504 -2.744568 -10.362036 4.623136 2.102473 -2.347900 -3.782694 1.056607 -0.919844 2.037738 1.056701 -0.919737 7.363403 0.721761 -0.763553 15.136995 1.155968 2.350616 -7.922137 1.231128 4.705472 -2.300851 -7.970869 -1.087584 -9.113961 -76.221728 -12.720022 22.106305 0.898771 5.189330 -0.239971 3.126855 -4.927106 -3.944614 6.459188 -4.755250 -17.167716 64.770390 -7.161204 7.936471 4.872218 -6.796949 4.273180 -5.598384 -0.649969 -25.024551 3.264837 -7.647682 9.982704 -0.615812 4.102861 -10.996011 -3.290380 3.865635 -0.000001 0.000001 -0.000002 8.181243 4.471256 4.061597 19.930830 -0.830887 -1.682290 -10.574508 3.326716 -2.530401 -18.044103 -5.132391 -0.819040 
196.233185 -691.286133 95.135666 0.048805 -2.728121 -10.302015 4.583290 2.080663 -2.346552 -3.800258 1.046732 -0.920648 2.020174 1.046826 -0.920544 7.350233 0.714302 -0.763459 15.156825 1.152070 2.344885 -7.885250 1.226851 4.693397 -2.281575 -7.968266 -1.097031 -9.165825 -76.204571 -12.894011 22.148734 0.923730 5.152880 -0.234282 3.119379 -4.935615 -3.917563 6.464082 -4.752496 -17.200556 64.803728 -7.058582 7.958011 4.861775 -6.811335 4.275022 -5.582995 -0.650337 -24.891784 3.136199 -7.774074 9.990647 -0.513870 4.155788 -11.083135 -3.242909 3.713122 0.000001 -0.000000 0.000001 8.339090 4.410920 4.233653 20.137411 -0.900790 -1.762076 -10.500515 3.438854 -2.596421 -18.473225 -5.180365 -0.845194 
196.108429 -691.784973 95.087334 0.078285 -2.709872 -10.238914 4.540526 2.057798 -2.345610 -3.819117 1.036400 -0.921703 2.001314 1.036495 -0.921596 7.336093 0.706483 -0.763522 15.177473 1.147999 2.339138 -7.846863 1.222291 4.681215 -2.261360 -7.966810 -1.107331 -9.237549 -76.184572 -13.081586 22.184530 0.945381 5.123558 -0.229470 3.112367 -4.942931 -3.890688 6.467502 -4.749313 -17.244182 64.841766 -6.931235 7.981774 4.851403 -6.828891 4.276071 -5.568670 -0.650656 -24.761835 3.008956 -7.885233 10.016501 -0.407464 4.254323 -11.178674 -3.170543 3.579834 -0.000001 0.000001 -0.000001 8.484555 4.346052 4.396348 20.366384 -0.971909 -1.829947 -10.426838 3.556511 -2.665394 -18.898201 -5.228951 -0.870813 
195.979797 -692.287476 95.035164 0.110511 -2.690826 -10.172406 4.493394 2.034710 -2.345244 -3.839914 1.025981 -0.923039 1.980516 1.026077 -0.922935 7.320499 0.698575 -0.763791 15.200012 1.143487 2.333531 -7.804931 1.216943 4.669105 -2.238705 -7.966302 -1.119077 -9.327035 -76.163091 -13.282683 22.214149 0.963794 5.102228 -0.225591 3.105760 -4.948516 -3.862451 6.467714 -4.745814 -17.300968 64.884871 -6.775267 8.008888 4.841337 -6.851234 4.276657 -5.553934 -0.650995 -24.637317 2.877583 -7.988132 10.088789 -0.283598 4.398961 -11.303825 -3.062371 3.476371 0.000002 0.000001 -0.000000 8.626053 4.279318 4.553416 20.605868 -1.045917 -1.893281 -10.356407 3.674323 -2.732669 -19.340999 -5.274377 -0.897567 
195.846283 -692.794678 94.977448 0.145727 -2.671496 -10.102717 4.441109 2.011922 -2.345304 -3.863007 1.015694 -0.924569 1.957424 1.015791 -0.924460 7.303181 0.690746 -0.764217 15.225263 1.138358 2.328128 -7.757923 1.210483 4.657112 -2.212698 -7.966457 -1.132376 -9.427401 -76.141842 -13.491965 22.238869 0.979584 5.088476 -0.222592 3.099529 -4.952024 -3.831597 6.463836 -4.741829 -17.370339 64.933119 -6.591163 8.040412 4.831601 -6.878831 4.277289 -5.537387 -0.651245 -24.520408 2.736588 -8.090449 10.233498 -0.131760 4.580444 -11.470742 -2.914085 3.403454 0.000002 -0.000000 -0.000001 8.770035 4.212290 4.709907 20.846265 -1.124179 -1.958769 -10.290206 3.788626 -2.795319 -19.817903 -5.314006 -0.926766 
195.708572 -693.305664 94.915726 0.183550 -2.651255 -10.030292 4.384529 1.988984 -2.345553 -3.888008 1.005330 -0.926206 1.932423 1.005427 -0.926099 7.284434 0.682850 -0.764720 15.252726 1.132744 2.322825 -7.706800 1.203178 4.645106 -2.184205 -7.967300 -1.146750 -9.536413 -76.120560 -13.706229 22.259014 0.993043 5.081282 -0.220393 3.093716 -4.953760 -3.798812 6.456928 -4.737175 -17.449933 64.986122 -6.382597 8.075935 4.821967 -6.910464 4.277982 -5.519563 -0.651299 -24.409952 2.587876 -8.190262 10.439613 0.042780 4.792443 -11.666797 -2.732842 3.351585 0.000002 -0.000000 0.000000 8.912521 4.143377 4.865352 21.092840 -1.205978 -2.023486 -10.226050 3.902167 -2.855991 -20.318255 -5.349668 -0.957623 
195.567337 -693.819702 94.851578 0.223595 -2.629476 -9.955569 4.324515 1.965450 -2.345749 -3.914531 0.994683 -0.927863 1.905900 0.994781 -0.927758 7.264544 0.674737 -0.765219 15.281864 1.126781 2.317515 -7.652536 1.195293 4.632948 -2.154083 -7.968850 -1.161718 -9.651826 -76.098949 -13.922232 22.274919 1.004468 5.079640 -0.218910 3.088358 -4.954008 -3.764786 6.448048 -4.731675 -17.537364 65.043454 -6.153275 8.115023 4.812217 -6.944922 4.278759 -5.501014 -0.651048 -24.304769 2.433364 -8.285665 10.696150 0.234683 5.028699 -11.879329 -2.525873 3.311253 0.000000 0.000001 -0.000001 9.049542 4.070977 5.019276 21.350867 -1.290598 -2.084523 -10.161746 4.017630 -2.917401 -20.831408 -5.383260 -0.989338 
195.423233 -694.335938 94.786575 0.265476 -2.605536 -9.878999 4.261932 1.940866 -2.345657 -3.942188 0.983544 -0.929456 1.878243 0.983643 -0.929355 7.243805 0.666260 -0.765638 15.312183 1.120605 2.312094 -7.596086 1.187098 4.620509 -2.123195 -7.971126 -1.176800 -9.771401 -76.076771 -14.136844 22.286885 1.014152 5.082522 -0.218061 3.083492 -4.953067 -3.730197 6.438255 -4.725141 -17.630247 65.104762 -5.906869 8.157266 4.802121 -6.980988 4.279632 -5.482270 -0.650368 -24.203667 2.274970 -8.374755 10.992141 0.438475 5.283145 -12.095726 -2.300558 3.272915 0.000002 0.000000 0.000000 9.177135 3.993471 5.171202 21.625661 -1.377317 -2.138982 -10.095026 4.137633 -2.982325 -21.346727 -5.416735 -1.021133 
195.276962 -694.853699 94.722290 0.308807 -2.578810 -9.801023 4.197634 1.914776 -2.345040 -3.970595 0.971705 -0.930905 1.849836 0.971803 -0.930804 7.222504 0.657269 -0.765893 15.343154 1.114354 2.306457 -7.538429 1.178862 4.607649 -2.092402 -7.974150 -1.191517 -9.892899 -76.053753 -14.346853 22.295250 1.022389 5.088914 -0.217760 3.079160 -4.951233 -3.695728 6.428617 -4.717378 -17.726187 65.169663 -5.647120 8.202239 4.791447 -7.017437 4.280607 -5.463866 -0.649160 -24.105406 2.114616 -8.455626 11.316680 0.648524 5.549904 -12.303420 -2.064497 3.227054 -0.000002 -0.000000 -0.000001 9.291328 3.909226 5.320644 21.922503 -1.465400 -2.183969 -10.023628 4.264716 -3.053616 -21.853600 -5.452127 -1.052235 
195.129196 -695.372192 94.660278 0.353197 -2.548678 -9.722089 4.132488 1.886723 -2.343662 -3.999369 0.958953 -0.932120 1.821062 0.959052 -0.932021 7.200931 0.647612 -0.765911 15.374269 1.108168 2.300503 -7.480515 1.170860 4.594239 -2.062564 -7.977937 -1.205382 -10.014113 -76.029657 -14.549063 22.300330 1.029470 5.097788 -0.217928 3.075400 -4.948796 -3.662055 6.420196 -4.708196 -17.822721 65.237821 -5.377777 8.249513 4.779968 -7.053062 4.281702 -5.446353 -0.647311 -24.008743 1.954227 -8.526398 11.658873 0.859000 5.823374 -12.489859 -1.825561 3.164181 0.000003 0.000000 0.000001 9.388169 3.816600 5.467097 22.246739 -1.554094 -2.216613 -9.945210 4.401342 -3.134191 -22.341419 -5.491530 -1.081875 
194.980591 -695.890625 94.602119 0.398256 -2.514519 -9.642643 4.067343 1.856243 -2.341289 -4.028121 0.945076 -0.933017 1.792309 0.945174 -0.932920 7.179373 0.637140 -0.765603 15.405008 1.102183 2.294123 -7.423314 1.163363 4.580140 -2.034542 -7.982506 -1.217921 -10.132822 -76.004248 -14.740303 22.302444 1.035690 5.108126 -0.218482 3.072248 -4.946054 -3.629858 6.414058 -4.697400 -17.917401 65.308903 -5.102623 8.298675 4.767450 -7.086646 4.282932 -5.430263 -0.644719 -23.912395 1.795735 -8.585170 12.007875 1.063889 6.098203 -12.642583 -1.591951 3.074863 0.000003 0.000000 0.000002 9.463696 3.713944 5.610033 22.603697 -1.642628 -2.234062 -9.857398 4.549882 -3.227049 -22.799586 -5.537117 -1.109293 
194.831833 -696.408081 94.549370 0.443592 -2.475715 -9.563133 4.003060 1.822869 -2.337680 -4.056473 0.929861 -0.933514 1.763957 0.929959 -0.933418 7.158121 0.625698 -0.764901 15.434848 1.096540 2.287215 -7.367786 1.156647 4.565221 -2.009193 -7.987879 -1.228650 -10.246812 -75.977289 -14.917408 22.301910 1.041347 5.118898 -0.219335 3.069747 -4.943298 -3.599808 6.411263 -4.684791 -18.007729 65.382601 -4.825491 8.349291 4.753652 -7.116970 4.284290 -5.416145 -0.641280 -23.815068 1.641068 -8.630054 12.352885 1.256986 6.369304 -12.749258 -1.372232 2.949735 0.000003 0.000001 -0.000001 9.513957 3.599593 5.748901 22.998743 -1.730200 -2.233487 -9.757770 4.712610 -3.335273 -23.217526 -5.591123 -1.133687 
194.683609 -696.923828 94.503593 0.488811 -2.431650 -9.484010 3.940495 1.786136 -2.332600 -4.084037 0.913092 -0.933524 1.736395 0.913190 -0.933431 7.137461 0.613132 -0.763716 15.463294 1.091385 2.279673 -7.314900 1.150993 4.549345 -1.987380 -7.994071 -1.237090 -10.353844 -75.948555 -15.077219 22.299048 1.046736 5.129081 -0.220407 3.067935 -4.940818 -3.572576 6.412885 -4.670162 -18.091151 65.458607 -4.550227 8.400938 4.738343 -7.142811 4.285787 -5.404531 -0.636889 -23.715467 1.492166 -8.659159 12.683106 1.431909 6.631852 -12.797680 -1.175366 2.779544 -0.000000 0.000000 0.000000 9.535006 3.471874 5.883104 23.437237 -1.815976 -2.212090 -9.643826 4.891679 -3.462049 -23.584647 -5.655849 -1.154195 
194.536560 -697.437378 94.466393 0.533523 -2.381709 -9.405720 3.880505 1.745569 -2.325815 -4.110432 0.894553 -0.932963 1.709999 0.894650 -0.932874 7.117682 0.599289 -0.761975 15.489822 1.086860 2.271397 -7.265612 1.146680 4.532383 -1.969959 -8.001098 -1.242754 -10.451756 -75.917839 -15.216593 22.294171 1.052155 5.137648 -0.221612 3.066850 -4.938913 -3.548831 6.419990 -4.653312 -18.165095 65.536683 -4.280749 8.453185 4.721276 -7.162965 4.287429 -5.395970 -0.631446 -23.612259 1.350972 -8.670613 12.987766 1.582140 6.881252 -12.775898 -1.010738 2.555153 -0.000000 0.000000 -0.000002 9.522898 3.329116 6.011993 23.924575 -1.899068 -2.167116 -9.512986 5.089116 -3.610667 -23.890403 -5.733664 -1.169850 
194.391403 -697.947449 94.439293 0.577330 -2.325280 -9.328711 3.823939 1.700692 -2.317078 -4.135277 0.874025 -0.931749 1.685156 0.874122 -0.931659 7.099068 0.584015 -0.759593 15.513916 1.083109 2.262279 -7.220878 1.143996 4.514196 -1.957790 -8.008975 -1.245161 -10.538383 -75.884918 -15.332393 22.287601 1.057897 5.143573 -0.222864 3.066530 -4.937875 -3.529240 6.433648 -4.634025 -18.226954 65.616555 -4.021019 8.505603 4.702219 -7.176207 4.289212 -5.391001 -0.624860 -23.504119 1.219432 -8.662527 13.256071 1.701052 7.113048 -12.672197 -0.888171 2.267604 0.000000 0.000000 -0.000000 9.473694 3.169634 6.134860 24.466173 -1.978542 -2.095856 -9.362605 5.306790 -3.784527 -24.124204 -5.826983 -1.179525 
